# xmcd
#
# Track frame offsets: 
#        150
#        19030
#        37617
#        59455
#        76107
#        93730
#        112980
#        135437
#        153837
#        169412
#        190477
#        207665
#
# Disc length: 3035 seconds
#
# Revision: 5
# Processed by: cddbd v1.5.2PL0 Copyright (c) Steve Scherf et al.
# Submitted via: ExactAudioCopyFreeDBPlugin 1.0
#
DISCID=970bd90c
DTITLE=蔡琴 - 火舞
DYEAR=1988
DGENRE=Pop
TTITLE0=火舞
TTITLE1=金色樓梯
TTITLE2=傷心小站
TTITLE3=油蔴菜籽
TTITLE4=情鎖
TTITLE5=蝶衣
TTITLE6=最後一夜
TTITLE7=讀你
TTITLE8=天天天天
TTITLE9=我和我自己的影子
TTITLE10=情願孤獨
TTITLE11=時間的河
EXTD=·Éµú³ªÆ¬ YEAR: 1988
EXTT0=
EXTT1=
EXTT2=
EXTT3=
EXTT4=
EXTT5=
EXTT6=
EXTT7=
EXTT8=
EXTT9=
EXTT10=
EXTT11=
PLAYORDER=
